<svg xmlns="http://www.w3.org/2000/svg" version="1.1" xmlns:xlink="http://www.w3.org/1999/xlink" xmlns:svgjs="http://svgjs.dev/svgjs" width="2000" height="1500" viewBox="0 0 2000 1500"><rect width="2000" height="1500" fill="#000000"></rect><g transform="matrix(0.75,0,0,0.75,247.8120235625696,18.27326361154411)"><svg viewBox="0 0 255 248" data-background-color="#000000" preserveAspectRatio="xMidYMid meet" height="1945" width="2000" xmlns="http://www.w3.org/2000/svg" xmlns:xlink="http://www.w3.org/1999/xlink"><g id="tight-bounds" transform="matrix(1,0,0,1,0.3719559943631623,0.400026344207987)"><svg viewBox="0 0 254.2560737899543 247.2" height="247.2" width="254.2560737899543"><g><svg viewBox="0 0 254.25607378995434 247.20000000000002" height="247.2" width="254.2560737899543"><g><svg viewBox="0 0 254.25607378995434 247.20000000000002" height="247.20000000000002" width="254.25607378995434"><g id="textblocktransform"><svg viewBox="0 0 254.25607378995434 247.20000000000002" height="247.20000000000002" width="254.25607378995434" id="textblock"><g><svg viewBox="0 0 254.25607378995434 247.20000000000002" height="247.20000000000002" width="254.25607378995434"><path d="M253.661 53.02C252.465 27.36 249.059 20.227 249.059 20.227 238.6-6.202 225.547-0.506 213.821 3.292 193.118 3.446 172.499 9.091 151.844 12.119 108.49 12.581 64.766 4.986 21.627 23.717 17.575 29.464-4.204 24.846 0.721 56.304 2.012 69.39 6.721 83.913 6.578 95.922 7.223 98.026 8.12 93.202 8.502 96.23 9.841 104.39 12.028 100.541 13.821 105.365 11.323 118.246 13.116 128.971 14.825 140.21 11.813 143.135 7.952 141.749 6.219 151.449 6.04 158.479 5.072 157.145 4.008 156.837 3.231 156.632 1.665 157.402 1.928 159.608 2.825 167.152-1.024 171.514 1.39 178.904-0.271 186.91 2.538 193.838 2.155 202.511 2.107 204.255 2.37 205.744 2.789 206.154 4.641 208.361 1.94 212.672 2.227 217.342 21.232 249.262 41.851 227.195 61.323 241.872 66.379 231.608 62.578 245.516 64.598 243.36 66.176 240.846 67.324 251.263 69.105 245.362 69.38 243.668 68.961 239.665 69.941 240.435 70.455 240.846 70.91 240.743 70.981 238.382 71.089 234.841 70.145 237.048 69.893 235.201 72.607 225.861 71.937 248.081 74.483 247.158 74.364 244.438 73.623 240.538 75.141 241.051 76.647 237.151 76.695 233.918 78.034 242.693 78.081 244.592 78.32 245.926 78.703 246.85 82.887 237.305 87.046 250.237 91.433 245.926 94.122 241.205 96.704 248.492 99.43 246.696 100.386 245.259 101.354 242.693 102.275 247.004 113.546 247.928 125.559 244.079 136.245 247.158 164.801 241.41 195.318 249.518 225.428 241.923 232.528 238.998 239.903 234.841 246.824 231.506 246.824 231.506 252.43 222.371 252.43 181.316S253.625 145.393 253.804 112.703C253.984 80.013 254.82 78.679 253.625 53.02Z" opacity="1" fill="#ee3e38" data-fill-palette-color="tertiary"></path><g transform="matrix(1,0,0,1,55.76832,26.230666666666668)"><svg width="142.71943378995434" viewBox="3.91 -35.64 26.12 35.64" height="194.7386666666667" data-palette-color="#ffffff"><path d="M7.2-17.16L22.58-35.64 28.44-35.64 12.94-18.07 10.38-18.19 7.2-17.16ZM24.05 0L8.54-17.94 11.84-21 30.03 0 24.05 0ZM3.91-35.64L8.91-35.64 8.91 0 3.91 0Q4.17-1.46 4.22-4.24 4.27-7.01 4.27-10.62L4.27-10.62 4.27-25.02Q4.27-28.64 4.22-31.41 4.17-34.18 3.91-35.64L3.91-35.64Z" opacity="1" transform="matrix(1,0,0,1,0,0)" fill="#ffffff" class="wordmark-text-0" data-fill-palette-color="quaternary" id="text-0"></path></svg></g></svg></g></svg></g></svg></g><g></g></svg></g><defs></defs></svg><rect width="254.2560737899543" height="247.2" fill="none" stroke="none" visibility="hidden"></rect></g></svg></g></svg>